<svg width="1055" height="1295" viewBox="0 0 1055 1295" fill="none" xmlns="http://www.w3.org/2000/svg">
<path d="M114.644 193.61C138.326 115.417 252.226 99.5926 306.216 101.454C424.622 -38.7337 631.274 -27.0049 777.047 95.8691C922.82 218.743 906.065 373.452 901.596 439.358C897.128 505.263 939.017 702.42 949.07 766.091C959.124 829.762 994.85 928.605 1044 1066C1083.32 1175.92 1006.27 1244.75 973.5 1280.5L513.5 1207L73.8722 1294.45C-28.8952 1153.26 -2.45864 1053.54 23.6055 1021.33C93.9788 946.492 120.23 745.984 86.16 627.578C52.0904 509.172 85.0429 291.35 114.644 193.61Z" fill="#AB493E"/>
<ellipse cx="513.997" cy="589.04" rx="253.567" ry="358.569" fill="#FBD6CB"/>
<path d="M250.933 644.333C250.486 663.993 277.556 728.111 291.146 757.713L276.626 495.768C240.89 472.98 227.48 467.656 225.242 467.842C195.306 458.905 180.747 488.693 177.21 504.704C162.912 569.045 220.401 624.599 250.933 644.333Z" fill="#FBD6CB"/>
<path d="M777.047 644.333C777.494 663.993 750.425 728.111 736.834 757.713L751.354 495.768C787.091 472.98 800.5 467.656 802.738 467.842C832.675 458.905 847.233 488.693 850.771 504.704C865.069 569.045 807.579 624.599 777.047 644.333Z" fill="#FBD6CB"/>
<path d="M268.236 565.583C266.002 574.072 261.72 569.12 259.858 565.583C249.246 557.205 239.193 518.109 234.166 510.289C229.139 502.47 234.166 468.4 221.32 463.374C211.043 459.352 197.304 466.911 191.719 471.193L199.538 444.943L203.448 349.995L231.932 301.962L259.858 225.445L404.514 174.062C453.105 180.764 552.298 195.62 560.341 201.429C568.383 207.237 701.832 281.669 767.551 318.159L878.696 401.378L894.334 647.126L834.573 616.966C809.067 556.646 734.933 429.081 642.443 401.378C549.952 373.676 433.371 292.281 386.642 255.047C382.173 287.999 284.991 454.438 274.938 472.869C264.885 491.3 271.028 554.971 268.236 565.583Z" fill="#AB493E"/>
<path d="M298.956 113.742C303.982 63.2889 349.334 -27.1165 490.527 14.884M120.23 766.091C93.7934 804.07 40.6058 916.637 41.4994 1006M873.112 244.993C907.368 396.352 972.081 723.42 956.89 820.825" stroke="#AB493E" stroke-width="7"/>
</svg>
