<svg width="227" height="332" viewBox="0 0 227 332" fill="none" xmlns="http://www.w3.org/2000/svg">
<path d="M219.795 295.031C214.194 307.706 167.767 291.026 202.286 313.292L124.911 300.011C100.135 305.054 117.298 228.701 105.234 233.786C93.1689 238.87 71.6093 292.465 68.8864 331.912C51.723 325.18 41.747 304.52 38.9044 295.031C38.9044 308.279 40.58 325.138 41.4178 331.912C36.2413 332.956 30.6884 324.746 23.6507 307.344C14.8536 285.592 10.2755 217.38 14.1355 194.912C17.9954 172.443 -14.5965 108.837 10.7177 47.6973C36.0318 -13.4423 114.308 -3.86409 147.432 11.5327C180.556 26.9295 192.854 97.2893 194.2 108.837C195.547 120.385 184.643 164.695 209.957 200.86C235.271 237.024 226.797 279.186 219.795 295.031Z" fill="#AB493E"/>
<path d="M74.9632 178.967L134.19 156C134.19 156 139.498 170.313 145.139 185.79C150.996 207.682 141.157 233.388 141.157 233.388L96.1985 271L67 230.392L74.9632 201.933V178.967Z" fill="#FBD6CB"/>
<path d="M8.07966 200.999C11.9461 178.554 -14.1301 109.074 11.2268 48L75 199.483C61.1359 215.107 52.4499 212.946 52.4499 239.874C52.4499 254.899 60.6347 260.368 49.2762 282.7C45.5045 290.115 49.7773 277.771 36.9154 266.801C36.9154 276.455 38.3399 273.835 36.9154 281.428C35.8819 286.937 35.5791 296.289 32.0713 296.994C30.351 297.341 29.0649 281.462 25.2227 273.059C20.8634 263.525 19.076 271.378 14.3653 259.762C5.5533 238.032 4.21319 223.444 8.07966 200.999Z" fill="#AB493E"/>
<path d="M19.4893 134.062C14.1127 119.229 11.5895 102.052 11 95.3173C13.7047 58.6129 29.1569 42.8495 48.7494 37.3512C72.8732 15.6768 106.317 36.7034 120.024 49.9259C127.777 56.1064 136.91 73.8373 144.834 95.3173C152.757 116.797 148.233 140.65 140.805 149.892C127.688 165.926 98.3057 199.306 85.7132 204.554C73.1208 209.802 68.9115 210.297 68.3809 209.889C34.5652 198.834 24.913 170.416 22.4075 157.588C21.4171 143.175 20.0494 135.898 19.4893 134.062Z" fill="#FBD6CB"/>
<path d="M106.265 103.035C68.0227 45.0589 30.154 45.6963 16 53.2621L22.9435 39.2326C32.6466 22.1352 63.5718 -6.34066 109.648 16.5354C167.243 45.1304 148.549 60.5002 162.97 96.8695C177.391 133.239 156.739 202.224 151.576 228.407C146.413 254.589 119.707 283.273 123.891 301.324C127.238 315.764 125.286 319.792 123.891 320C106.265 310.439 95.494 269.333 111.695 210.445C124.657 163.335 113.476 119.209 106.265 103.035Z" fill="#AB493E"/>
</svg>
