<svg width="814" height="1245" viewBox="0 0 814 1245" fill="none" xmlns="http://www.w3.org/2000/svg">
<path d="M123.442 483H407V1228.35L0 1245L123.442 483Z" fill="#AB493E"/>
<path d="M690.177 483H406.619V1228.35L813.619 1245L690.177 483Z" fill="#AB493E"/>
<path d="M443 551.5C447.804 724.24 420 800 429.5 1001C249 1001 72.8866 746.132 87.0002 492C100.492 249.066 402.5 88.5 402.5 88.5C402.5 88.5 437.889 367.722 443 551.5Z" fill="#FBD6CB"/>
<path d="M408.562 552C403.758 724.74 431.562 800.5 422.062 1001.5C602.562 1001.5 778.676 746.632 764.562 492.5C751.071 249.566 408.562 73 408.562 73C408.562 73 413.673 368.222 408.562 552Z" fill="#FBD6CB"/>
<path d="M189.126 430.294C117.14 489.071 79.4912 497.901 69.6654 494.97C4.50486 302.495 -7.18265 -64.0337 467.352 9.64457C809.703 -54.5135 775.571 430.294 770.917 471.686C767.194 504.8 751.093 501.006 743.508 494.97C739.716 479.62 725.201 426.362 697.482 336.126C669.763 245.891 632.397 256.195 573.282 239.041C485.544 213.581 349.959 308.704 349.959 308.704C349.959 308.704 279.11 356.823 189.126 430.294Z" fill="#AB493E"/>
<ellipse cx="76.5" cy="526" rx="38.5" ry="54" fill="#FBD6CB"/>
<ellipse cx="754.5" cy="526" rx="38.5" ry="54" fill="#FBD6CB"/>
</svg>
