<svg width="1078" height="1710" viewBox="0 0 1078 1710" fill="none" xmlns="http://www.w3.org/2000/svg">
<path d="M904.872 696.005C903.924 722.097 917.523 778.035 924.441 802.743L952.904 857.892L946.974 894.657C949.346 900.192 955.395 915.293 960.613 931.423C967.136 951.585 985.519 976.49 991.449 990.129C997.379 1003.77 991.449 1060.1 991.449 1070.18C991.449 1078.25 970.892 1145.89 960.613 1178.7L887.082 1248.08L575.761 1255.2C495.707 1242.94 318.64 1208.94 250.802 1170.99C166.004 1123.55 85.3561 1035.79 40.8817 922.528C-3.59272 809.266 46.8116 626.625 55.7065 568.512C64.6014 510.398 36.1379 448.134 29.022 327.164C21.9061 206.193 100.181 133.848 139.912 108.35C171.696 87.9507 210.873 95.8968 226.488 102.42C234.79 63.2822 254.359 59.7243 359.319 22.3658C463.78 -14.8155 612.295 32.5858 696.13 59.343L697.324 59.7243C780.936 86.4089 798.133 201.449 860.99 299.293C923.847 397.137 927.998 468.296 936.3 496.76C944.602 525.223 906.058 663.39 904.872 696.005Z" fill="#AB493E"/>
<ellipse cx="423.377" cy="604.091" rx="269.218" ry="380.701" fill="#FBD6CB"/>
<path d="M144.075 662.797C143.601 683.671 172.341 751.746 186.771 783.175L171.354 505.061C133.412 480.867 119.175 475.214 116.799 475.412C85.0145 465.924 69.5572 497.55 65.8016 514.549C50.621 582.862 111.659 641.845 144.075 662.797Z" fill="#FBD6CB"/>
<path d="M702.665 662.797C703.139 683.671 674.399 751.746 659.969 783.175L675.386 505.061C713.328 480.867 727.566 475.214 729.941 475.412C761.726 465.924 777.183 497.55 780.939 514.549C796.119 582.862 735.081 641.845 702.665 662.797Z" fill="#FBD6CB"/>
<path d="M162.447 579.186C160.075 588.199 155.529 582.941 153.552 579.186C142.285 570.291 131.611 528.781 126.274 520.479C120.938 512.177 126.274 476.005 112.636 470.668C101.725 466.398 87.137 474.424 81.207 478.97L89.5089 451.099L93.6599 350.291L123.902 299.293L153.552 218.053L307.137 163.498C358.727 170.614 464.043 186.388 472.582 192.555C481.121 198.722 622.807 277.748 692.582 316.49L863.957 510.991L827.191 665.762L763.741 633.741C736.661 569.698 657.951 434.258 559.752 404.846C461.552 375.433 337.775 289.015 288.161 249.482C283.417 284.468 180.237 461.18 169.563 480.749C158.889 500.318 165.412 567.919 162.447 579.186Z" fill="#AB493E"/>
<path d="M42.6632 638.485C6.68834 710.237 -36.442 882.916 78.8357 999.617M1039.5 1104.5C1053.53 1049.75 1090.72 909.957 935.116 838.323M278.081 246.517C279.069 301.072 259.105 420.145 171.342 459.994M575.763 401.881C638.224 485.295 768.129 670.744 788.054 745.223M212.258 108.35C228.862 53.7944 302.275 -38.9496 463.094 26.5168" stroke="#AB493E" stroke-width="7"/>
<path d="M897.165 1601.5C923.731 1602.45 942.628 1573.04 948.755 1558.22C976.27 1656.41 900.525 1699.94 859.214 1709.43C819.681 1713.18 723.892 1692.35 657.003 1578.97C573.391 1437.24 685.467 1267.06 693.175 1242.15C700.884 1217.24 704.442 1203.01 741.801 1118.81C771.688 1051.44 766.904 953.166 760.777 912.447L807.623 861.45C843.598 825.475 917.327 763.132 924.442 801.557C933.337 849.59 1031.77 943.876 1062.61 996.059C1099.97 1050.02 1063.2 1226.14 1002.12 1267.06C941.046 1307.97 833.715 1450.29 816.518 1513.74C799.321 1577.19 863.957 1600.32 897.165 1601.5Z" fill="#AB493E"/>
</svg>
