<svg width="300" height="255" viewBox="0 0 300 255" fill="none" xmlns="http://www.w3.org/2000/svg">
<path d="M183.441 140.63C169.501 169.919 154.751 190.669 152.001 192.5L161.444 210.191C180.487 220.463 217.536 237.589 213.381 223.921C208.187 206.835 217.964 204.395 218.575 187.309C219.064 173.641 223.667 170.021 225.907 169.919C250.959 182.123 275.401 158.02 289.149 133.613C300.147 114.087 298.62 78.4926 296.481 63.1362L289.149 50.3223L282.427 43L268.985 46.0509C264.097 52.4579 248.393 67.4685 224.685 76.2552C200.977 85.0419 187.311 122.833 183.441 140.63Z" fill="#FBD6CB"/>
<path d="M292.324 47.3384C296.998 46.4223 304.395 48.9264 296.591 66.2723C286.837 87.9546 270.986 121.852 197.22 165.828C232.335 132.358 237.863 108.924 236.237 101.392C233.798 95.1821 226.117 87.466 214.899 106.278C213.172 112.08 210.998 125.578 216.119 133.152C208.295 140.277 188.197 151.475 170.396 139.259C152.594 127.044 144.486 100.984 142.657 89.4816C131.48 104.14 108.09 145.367 103.945 193.007C99.3115 169.065 115.223 126.84 123.758 108.721C117.458 120.936 104.493 148.299 103.03 160.025C101.201 174.684 93.8857 207.36 66.4519 225.072C39.018 242.785 18.595 249.503 0.000976562 255C9.75523 239.853 16.0549 225.276 17.9854 219.881C24.3257 206.2 20.1191 187.51 21.9481 168.576C26.2401 124.143 58.066 94.5216 76.7342 85.3769C66.2708 90.2252 46.5386 101.064 31.3975 115.134C37.7987 104.751 55.1735 92.5354 84.1314 78.1823C107.298 66.6999 132.801 66.8831 142.657 68.41C148.55 45.4044 171.249 -0.484744 214.899 0.00387106C269.462 0.61464 270.377 0.919907 292.324 47.3384Z" fill="#AB493E"/>
</svg>
