<svg width="375" height="504" viewBox="0 0 375 504" fill="none" xmlns="http://www.w3.org/2000/svg">
<path d="M144 58.5001C163.327 47.6929 171.718 44.2933 185.5 48.5001C225.683 20.5563 277.866 33.6227 306.94 75.3431C336.015 117.064 322.966 163.872 317.265 180.544C311.564 197.215 308.746 250.902 306.94 268C305.135 285.098 301.957 317.225 296.948 349.607C292.481 378.483 287.12 395.729 274.948 423.107C262.039 452.143 274.936 487.911 232.165 492.321C200.915 495.543 177.165 471.821 151.165 455.321C98.1853 421.7 43.0326 335.601 43.0326 335.601C26.3029 292.129 48.0614 274.499 56.9999 268C80.2974 253.576 81.9702 216.6 96.4999 178.5C113.928 132.8 100.357 82.9038 144 58.5001Z" fill="#AB493E"/>
<path d="M141.966 336.888C117.025 293.808 123.348 267.24 121.799 266.536C128.887 258.398 152.65 242.666 157.976 222.001L156.64 169.314L206.087 181.758C206.087 181.758 158.542 324.909 141.966 336.888Z" fill="#FBD6CB"/>
<path d="M141.966 336.888C185.619 332.682 197.203 302.768 198.752 303.472C200.222 292.781 195.93 262.339 207.997 244.738L248.572 211.101L206.683 182.029C206.683 182.029 140.092 316.523 141.966 336.888Z" fill="#FBD6CB"/>
<ellipse cx="204.824" cy="173.067" rx="67.6333" ry="95.64" transform="rotate(14.7324 204.824 173.067)" fill="#FBD6CB"/>
<path d="M135.683 167.612C133.709 172.472 134.385 191.023 134.97 199.691L156.161 133.002C149.409 123.935 146.57 121.337 145.994 121.172C139.376 116.108 132.925 122.156 130.526 125.813C120.867 140.502 129.939 159.799 135.683 167.612Z" fill="#FBD6CB"/>
<path d="M262.595 215.527C260.533 220.35 246.884 232.931 240.316 238.619L272.754 176.616C283.946 175.028 287.79 175.215 288.313 175.507C296.568 176.641 296.816 185.481 295.908 189.759C292.278 206.961 272.187 214.105 262.595 215.527Z" fill="#FBD6CB"/>
<path d="M150.642 151.728C149.163 153.543 148.669 151.868 148.608 150.804C146.956 147.598 148.83 136.995 148.472 134.542C148.115 132.088 153.096 124.37 150.531 121.732C148.48 119.621 144.309 119.94 142.48 120.363L147.276 114.852L158.705 92.2284L170.923 83.7091L186.15 68.2115L226.946 71.7006C238.005 78.6911 260.452 93.2467 261.763 95.5449C263.075 97.843 287.264 130.646 299.194 146.76L305.501 176.001L274.501 247.501L261.763 223C255.776 200.788 273.402 163.695 254.001 146.76C234.6 129.824 220.905 103.592 213.668 89.3927C208.946 96.9011 166.978 126.589 162.503 129.955C158.027 133.321 152.491 149.46 150.642 151.728Z" fill="#AB493E"/>
<path d="M183.014 51.2864C183.014 36.2864 215.699 21.4557 249.014 42.2864M104.501 155.5C87.0008 182 74.0008 227.5 79.0007 245.5M320.014 134.286C318.065 175.633 314.517 268.762 299.514 298.786" stroke="#AB493E" stroke-width="2"/>
</svg>
