<svg width="824" height="1321" viewBox="0 0 824 1321" fill="none" xmlns="http://www.w3.org/2000/svg">
<path fill-rule="evenodd" clip-rule="evenodd" d="M373.476 23.9263C347.438 12.2065 309.601 0.486509 272.756 0.0146729C232.367 -0.502545 192.472 12.5563 171.384 54.734L171.493 54.7884C96.0469 109.5 59.8372 205.883 39.8634 259.05C34.142 274.279 29.7528 285.962 26.1551 292.105C1.4287 334.321 18.315 533.941 26.1551 582.188C28.8607 598.837 28.9807 650.464 28.5475 717.388C17.3216 770.204 5.032 845.818 1.20504 917.496C-0.894527 956.821 -0.453822 995.077 4.14976 1027.78C8.69877 1060.1 17.3787 1087.52 32.1649 1105.08C32.7133 1113.52 33.3215 1121.57 33.9952 1129.18C45.0919 1254.63 66.3606 1285.99 75.6079 1285.99L167.277 1296.84L412.732 1285.99C529.73 1309.31 769.998 1344.12 795.086 1296.84C797.097 1293.05 798.853 1288.98 800.376 1284.67L801.751 1286.08C821.826 1266.51 825.9 1241.71 823.029 1219.07C820.453 1198.75 812.271 1179.89 804.702 1167.35C801.966 1147.95 798.326 1130.66 795.086 1118.33C783.873 1088.26 778 1011.99 775.19 931.375L776.696 931.877C793.068 882.761 797.812 796.21 797.215 708.48C796.748 639.987 793.016 570.412 788.867 516.643C804.094 413.379 772.217 259.428 752.871 190.787C606.201 -34.0425 448.515 -11.447 388.005 27.9544C383.095 26.4899 378.252 25.1484 373.476 23.9263ZM330.19 15.8023C312.029 10.7879 292.16 7.26374 272.666 7.0141C238.092 6.57134 205.248 16.3815 184.727 45.888C223.057 22.0646 270.701 8.92079 330.19 15.8023ZM783.77 543.161C776.488 584.538 764.873 676.668 773.375 734.768C772.678 779.902 772.676 847.271 774.626 913.758C786.939 864.222 790.752 787.348 790.215 708.527C789.821 650.795 787.101 592.274 783.77 543.161ZM807.108 1187.55C809.903 1216.5 810.015 1247.74 803.761 1273.24C815.878 1257.11 818.388 1238.11 816.085 1219.95C814.612 1208.34 811.178 1197.18 807.108 1187.55ZM31.3821 1092.08C26.3141 1000.98 27.3407 871.948 28.1855 765.759C28.2145 762.108 28.2434 758.484 28.2717 754.89C19.4407 802.967 11.1958 861.666 8.19509 917.869C6.10826 956.956 6.56464 994.718 11.0814 1026.81C14.8518 1053.6 21.405 1076.07 31.3821 1092.08Z" fill="#AB493E"/>
<ellipse cx="405.495" cy="600.884" rx="273.8" ry="387.179" fill="#FBD6CB"/>
<path d="M121.442 660.589C120.96 681.818 150.189 751.052 164.864 783.015L149.185 500.169C148.18 511.829 142.43 532.374 127.474 521.277C112.518 510.18 98.7271 482.479 93.7014 470.015C61.3761 460.366 45.6558 492.53 41.8363 509.818C26.3973 579.294 88.4739 639.28 121.442 660.589Z" fill="#FBD6CB"/>
<path d="M690.169 660.549C690.652 681.778 661.422 751.012 646.747 782.975L662.426 500.129C663.431 511.789 669.181 532.334 684.137 521.237C699.094 510.14 712.884 482.439 717.91 469.975C750.235 460.326 765.956 492.49 769.775 509.778C785.214 579.254 723.137 639.24 690.169 660.549Z" fill="#FBD6CB"/>
<path d="M246.885 387.392C321.667 322.259 376.146 216.72 394.037 172.091C397.656 170.282 401.274 175.107 413.939 225.766C418.764 270.997 475.454 347.589 540.587 375.33C605.72 403.072 612.957 427.196 632.858 444.082C648.78 457.591 656.378 468.205 658.188 471.824C655.775 488.71 654.569 524.051 669.043 530.323C683.517 536.595 700.002 498.359 706.434 478.458C710.294 472.186 722.919 467.401 728.749 465.793L752.872 398.851L716.084 355.429L619.59 284.868L563.504 205.261L515.257 102.737L372.326 109.371L179.943 143.143C145.969 209.483 75.6092 351.207 65.9599 387.392C53.8982 432.623 100.598 461.571 112.056 478.458C121.223 491.967 115.072 517.93 136.18 525.167C147.276 531.921 153.87 478.327 153.066 468.477C162.232 407.204 215.726 401.866 246.885 387.392Z" fill="#AB493E"/>
</svg>
