<svg width="94" height="166" viewBox="0 0 94 166" fill="none" xmlns="http://www.w3.org/2000/svg">
<path d="M87.7193 155.355C57.1244 172.978 10.3823 163.279 5.45312 154.646V99.5319H87.7193V105.209V109.94V137.733V142.346V155.355Z" fill="#B37022"/>
<path d="M93.1357 107.114C58.5119 112.928 5.61441 109.728 0.0361328 106.88V88.6984H93.1357V90.5712V92.1319V101.301V102.822V107.114Z" fill="#A2651E"/>
<ellipse cx="46.5859" cy="88.1906" rx="46.5498" ry="7.95578" fill="#81521A"/>
<ellipse cx="46.5862" cy="88.0213" rx="41.1331" ry="6.43233" fill="#9E641E"/>
<mask id="mask0_17_2069" style="mask-type:alpha" maskUnits="userSpaceOnUse" x="5" y="81" width="83" height="14">
<ellipse cx="46.5857" cy="88.0213" rx="41.1638" ry="6.43233" fill="#D9D9D9"/>
</mask>
<g mask="url(#mask0_17_2069)">
<ellipse cx="46.5857" cy="92.0839" rx="41.1638" ry="6.43233" fill="#2E1313"/>
</g>
<path fill-rule="evenodd" clip-rule="evenodd" d="M46.4911 7.46954C46.4911 7.46232 46.4911 7.45509 46.4911 7.44788C46.6592 7.44788 46.829 7.44972 47.0003 7.45342C47.1701 7.44979 47.3384 7.44797 47.5051 7.44797C47.5051 7.45513 47.5051 7.46228 47.5051 7.46944C57.7285 7.89654 72.8975 14.6536 72.8975 26.5756C72.8975 28.2263 72.9142 29.9586 72.9316 31.7721C73.0767 46.8821 73.2759 67.6306 64.3591 93.7765C59.4908 94.4924 56.3182 94.4817 50.3334 94.4613C49.3456 94.458 48.2811 94.4544 47.1198 94.4537C45.8633 94.454 44.7192 94.4578 43.6628 94.4614C37.678 94.4818 34.5053 94.4925 29.6371 93.7766C20.7203 67.6307 20.9195 46.8822 21.0646 31.7722C21.082 29.9586 21.0986 28.2263 21.0986 26.5757C21.0986 14.6537 36.2677 7.89663 46.4911 7.46954Z" fill="#96D680"/>
<path d="M22.505 6.79468C13.8383 1.64881 13.5336 7.3025 16.0726 11.365C7.27052 16.4432 11.8973 19.885 18.2732 20.1672C14.8877 32.3547 21.715 29.3643 25.7211 25.7531C28.9373 37.2636 33.8461 30.1542 33.8461 24.399C43.1899 28.1906 42.4791 20.1672 39.4321 17.1203C48.4036 13.3963 43.2125 9.95442 38.4165 9.67229C44.1718 -1.33037 35.9338 2.1679 30.9685 6.11758C28.1248 -5.39291 24.2541 1.99864 22.505 6.79468Z" fill="#FF7A00"/>
<circle cx="27.627" cy="15.7425" r="5.58597" fill="#FFF61B"/>
</svg>
