<svg width="293" height="360" viewBox="0 0 293 360" fill="none" xmlns="http://www.w3.org/2000/svg">
<path fill-rule="evenodd" clip-rule="evenodd" d="M252.012 15.9906C280.352 40.4361 296.098 82.9283 292.001 89.0001C290.319 91.4928 286.319 92.0163 278.435 93.0483C268.272 94.3786 251.655 96.5536 225.229 104.88C223.291 114.092 221.973 123.067 220.766 131.282V131.282C218.788 144.738 217.111 156.157 213.5 163.248C210.458 192.109 212.407 214.455 214.514 238.615C217.177 269.157 220.092 302.599 213.5 355.765C32.6206 367.555 34.9063 349.622 39.8865 310.55C40.9747 302.013 42.1915 292.466 41.6543 282C40.2215 254.085 41.6102 239.378 42.7111 227.718C44.2479 211.442 45.2239 201.105 37.1808 169.071C23.4291 152.376 20.512 125.122 25.057 104.903C21.4672 104.448 18.3367 104.181 15.5437 103.942L15.5431 103.942C9.29365 103.407 4.73389 103.017 0.499402 101.001C13.8163 42.7389 44.4593 33.8975 54.0331 31.1351C54.1949 31.0885 54.3507 31.0435 54.5003 31.0001C55.6274 30.6729 56.7682 30.36 57.9034 30.0951C64.7958 26.2023 76.1533 24.737 102.28 21.3661L103.087 21.2619C101.798 25.0509 99.3783 28.0615 97.0605 30.946C92.5349 36.5779 88.396 41.7287 93.8047 51.2522C99.4644 61.2174 105.73 63.9905 113.614 67.48C115.691 68.3993 117.88 69.3683 120.2 70.5316C167.566 59.5828 182.799 29.5925 174.706 10.5511C175.871 10.2312 177.041 9.90606 178.217 9.57921L178.221 9.57821C186.562 7.26054 195.207 4.85858 204.159 3.66613C205.701 2.57505 207.628 1.99992 210 1.99992C217.383 -2.20076 228.601 2.0142 237.716 6.83467C240.453 7.84365 243.214 9.0728 246 10.5512C248.968 12.1262 250.901 13.9487 252.012 15.9906Z" fill="#20124E"/>
</svg>
