<svg width="1128" height="1295" viewBox="0 0 1128 1295" fill="none" xmlns="http://www.w3.org/2000/svg">
<path fill-rule="evenodd" clip-rule="evenodd" d="M563.551 1294.35L564.47 1294.42V1294.28L1026.5 1258.46C978.852 1049.52 886.565 582.92 898.582 388.087C960.795 366.236 1093.6 329.091 1127.1 355.311C1116.33 225.422 1058.13 9.70996 936.86 7.52492C896.708 6.80146 859.835 4.82712 827.25 3.08232C761.417 -0.442679 713.081 -3.03083 690.548 7.52506L563.551 184.689L436.553 7.52506C414.021 -3.03083 365.685 -0.442679 299.852 3.08232C267.266 4.82712 230.394 6.80146 190.242 7.52492C68.9718 9.70996 10.7735 225.422 0 355.311C33.504 329.091 166.306 366.236 228.519 388.087C240.537 582.92 148.249 1049.52 100.603 1258.46L562.632 1294.28V1294.42L563.551 1294.35Z" fill="#20124E"/>
</svg>
