<svg width="659" height="372" viewBox="0 0 659 372" fill="none" xmlns="http://www.w3.org/2000/svg">
<rect y="0.656006" width="658.971" height="324.945" rx="55" fill="#EA8F8F"/>
<path d="M497.509 300.876L567.644 371.012V300.876H497.509Z" fill="#EA8F8F"/>
<rect x="284.669" y="41.595" width="335.129" height="38.5589" rx="19.2795" fill="#F9F9F9"/>
<path d="M434.62 264.142C434.62 253.494 443.252 244.863 453.9 244.863V244.863C464.547 244.863 473.179 253.494 473.179 264.142V264.142C473.179 274.79 464.547 283.421 453.9 283.421V283.421C443.252 283.421 434.62 274.79 434.62 264.142V264.142Z" fill="#F9F9F9"/>
<path d="M501.266 264.142C501.266 253.494 509.897 244.863 520.545 244.863V244.863C531.193 244.863 539.825 253.494 539.825 264.142V264.142C539.825 274.79 531.193 283.421 520.545 283.421V283.421C509.897 283.421 501.266 274.79 501.266 264.142V264.142Z" fill="#F9F9F9"/>
<path d="M567.911 263.904C567.911 253.388 576.436 244.863 586.953 244.863V244.863C597.469 244.863 605.994 253.388 605.994 263.904V264.38C605.994 274.896 597.469 283.421 586.953 283.421V283.421C576.436 283.421 567.911 274.896 567.911 264.38V263.904Z" fill="#F9F9F9"/>
<rect x="38.5586" y="104.908" width="581.24" height="38.5589" rx="19.2795" fill="#F9F9F9"/>
<rect x="38.5586" y="172.981" width="581.24" height="38.5589" rx="19.2795" fill="#F9F9F9"/>
</svg>
