<svg width="930" height="317" viewBox="0 0 930 317" fill="none" xmlns="http://www.w3.org/2000/svg">
<rect width="928.746" height="270.865" rx="55" transform="matrix(-1 0 0 1 929.422 0.545166)" fill="#EA8F8F"/>
<path d="M162.139 246.498L92.0031 316.633V246.498H162.139Z" fill="#EA8F8F"/>
<path d="M58.751 57.9076C58.751 47.2599 67.3827 38.6282 78.0304 38.6282V38.6282C88.6782 38.6282 97.3099 47.2599 97.3099 57.9076V57.9076C97.3099 68.5554 88.6782 77.1871 78.0304 77.1871V77.1871C67.3827 77.1871 58.751 68.5554 58.751 57.9076V57.9076Z" fill="#F9F9F9"/>
<path d="M125.396 57.9076C125.396 47.2599 134.028 38.6282 144.676 38.6282V38.6282C155.324 38.6282 163.955 47.2599 163.955 57.9076V57.9076C163.955 68.5554 155.324 77.1871 144.676 77.1871V77.1871C134.028 77.1871 125.396 68.5554 125.396 57.9076V57.9076Z" fill="#F9F9F9"/>
<path d="M192.042 57.6696C192.042 47.1533 200.567 38.6282 211.083 38.6282V38.6282C221.6 38.6282 230.125 47.1533 230.125 57.6696V58.1457C230.125 68.6619 221.6 77.1871 211.083 77.1871V77.1871C200.567 77.1871 192.042 68.6619 192.042 58.1457V57.6696Z" fill="#F9F9F9"/>
<rect x="52.0869" y="113.842" width="678.828" height="38.5589" rx="19.2795" fill="#F9F9F9"/>
<rect x="52.0869" y="181.915" width="200.999" height="38.5589" rx="19.2795" fill="#F9F9F9"/>
<rect x="291.001" y="181.915" width="200.999" height="38.5589" rx="19.2795" fill="#F9F9F9"/>
<rect x="529.915" y="181.915" width="200.999" height="38.5589" rx="19.2795" fill="#F9F9F9"/>
<rect x="809.533" y="173.658" width="16.3279" height="54.5422" rx="8.16395" transform="rotate(36.4601 809.533 173.658)" fill="#F9F9F9"/>
<path fill-rule="evenodd" clip-rule="evenodd" d="M795.595 169.754C804.865 191.375 829.907 201.389 851.529 192.119C873.15 182.849 883.164 157.807 873.894 136.186C864.624 114.564 839.582 104.55 817.96 113.82C796.339 123.09 786.325 148.132 795.595 169.754ZM810.218 163.297C816.019 176.828 831.691 183.095 845.222 177.294C858.754 171.493 865.02 155.821 859.219 142.289C853.418 128.758 837.746 122.491 824.215 128.293C810.683 134.094 804.417 149.766 810.218 163.297Z" fill="#F9F9F9"/>
</svg>
