<svg width="659" height="371" viewBox="0 0 659 371" fill="none" xmlns="http://www.w3.org/2000/svg">
<rect x="0.0273438" width="658.971" height="324.945" rx="55" fill="#8FA3EA"/>
<path d="M497.536 300.22L567.672 370.356V300.22H497.536Z" fill="#8FA3EA"/>
<rect x="38.5859" y="108.536" width="335.129" height="38.5589" rx="19.2795" fill="#F9F9F9"/>
<path d="M434.648 61.1706C434.648 50.5228 443.28 41.8911 453.928 41.8911V41.8911C464.576 41.8911 473.207 50.5228 473.207 61.1706V61.1706C473.207 71.8183 464.576 80.45 453.928 80.45V80.45C443.28 80.45 434.648 71.8183 434.648 61.1706V61.1706Z" fill="#F9F9F9"/>
<path d="M501.293 61.1706C501.293 50.5228 509.925 41.8911 520.572 41.8911V41.8911C531.22 41.8911 539.852 50.5228 539.852 61.1706V61.1706C539.852 71.8183 531.22 80.45 520.572 80.45V80.45C509.925 80.45 501.293 71.8183 501.293 61.1706V61.1706Z" fill="#F9F9F9"/>
<path d="M567.938 60.9326C567.938 50.4163 576.464 41.8911 586.98 41.8911V41.8911C597.496 41.8911 606.021 50.4163 606.021 60.9326V61.4086C606.021 71.9249 597.496 80.45 586.98 80.45V80.45C576.464 80.45 567.938 71.9249 567.938 61.4086V60.9326Z" fill="#F9F9F9"/>
<rect x="38.5859" y="176.609" width="581.24" height="38.5589" rx="19.2795" fill="#F9F9F9"/>
<rect x="38.5859" y="244.683" width="270.389" height="38.5589" rx="19.2795" fill="#F9F9F9"/>
</svg>
