<svg width="789" height="52" viewBox="0 0 789 52" fill="none" xmlns="http://www.w3.org/2000/svg">
<path fill-rule="evenodd" clip-rule="evenodd" d="M0 8.31506C0 3.89678 3.58172 0.315063 8 0.315063H781C785.418 0.315063 789 3.89678 789 8.31506V21.4141C789 25.8324 785.418 29.4141 781 29.4141H745.767V43.862C745.767 48.2802 742.185 51.862 737.767 51.862H710.534C706.116 51.862 702.534 48.2802 702.534 43.862V29.4141H86.4658V43.862C86.4658 48.2802 82.884 51.862 78.4658 51.862H51.2329C46.8146 51.862 43.2329 48.2802 43.2329 43.862V29.4141H7.99999C3.58171 29.4141 0 25.8324 0 21.4141V8.31506Z" fill="#825B37"/>
<mask id="mask0_17_2114" style="mask-type:alpha" maskUnits="userSpaceOnUse" x="0" y="0" width="789" height="52">
<path fill-rule="evenodd" clip-rule="evenodd" d="M0 8.31506C0 3.89678 3.58172 0.315063 8 0.315063H781C785.418 0.315063 789 3.89678 789 8.31506V21.4141C789 25.8324 785.418 29.4141 781 29.4141H745.767V43.862C745.767 48.2802 742.185 51.862 737.767 51.862H710.534C706.116 51.862 702.534 48.2802 702.534 43.862V29.4141H86.4658V43.862C86.4658 48.2802 82.884 51.862 78.4658 51.862H51.2329C46.8146 51.862 43.2329 48.2802 43.2329 43.862V29.4141H7.99999C3.58171 29.4141 0 25.8324 0 21.4141V8.31506Z" fill="#825B37"/>
</mask>
<g mask="url(#mask0_17_2114)">
<rect x="-100.6" y="16.1117" width="976.065" height="107.251" fill="#6A4726"/>
</g>
</svg>
