<svg width="265" height="255" viewBox="0 0 265 255" fill="none" xmlns="http://www.w3.org/2000/svg">
<path d="M126.196 209.812L47.4634 246.619C45.2141 247.67 42.734 245.69 43.2613 243.264L61.7931 158.001C62.0046 157.028 61.7195 156.013 61.0321 155.293L1.6739 93.0801C-0.0662278 91.2563 1.08247 88.2296 3.59449 88.0196L91.196 80.6957C92.2137 80.6106 93.1183 80.0137 93.5966 79.1114L134.568 1.83049C135.748 -0.395935 138.981 -0.263148 139.975 2.05257L174.673 82.9034C175.071 83.83 175.907 84.4948 176.9 84.673L262.288 100.01C264.779 100.457 265.631 103.597 263.709 105.242L197.826 161.625C197.053 162.286 196.668 163.294 196.803 164.302L208.381 250.851C208.713 253.328 206.047 255.101 203.891 253.837L128.984 209.941C128.132 209.442 127.09 209.394 126.196 209.812Z" fill="#E9D078"/>
</svg>
