<svg width="199" height="232" viewBox="0 0 199 232" fill="none" xmlns="http://www.w3.org/2000/svg">
<path d="M14.0264 64.5C17.2264 52.9 31.3597 40.3333 38.0264 35.5C29.2264 12.3 11.0264 6.16667 3.02637 6C-5.77363 27.6 6.69303 54 14.0264 64.5Z" fill="#F2C9E2"/>
<ellipse cx="157.078" cy="182.926" rx="41.1771" ry="48.3177" fill="#F2C9E2"/>
<ellipse cx="161.363" cy="188.162" rx="36.8928" ry="43.0813" fill="#866A8A"/>
<path d="M110.665 49.3973C136.504 75.064 148.26 119.981 146.647 142.321C149.256 145.173 160.379 144.234 162.314 138.416C164.733 131.144 150.774 76.3005 146.647 67.7449C142.521 59.1893 127.581 29.5301 93.7164 18.9782C66.6249 10.5367 32.414 21.0914 18.9915 28.126C17.4824 29.9038 11.0002 36 18.9915 33C27.6711 28.5796 78.3653 17.314 110.665 49.3973Z" fill="#F2C9E2"/>
<path d="M123 58.5C119.8 46.9 105.667 34.3333 99 29.5C107.8 6.3 126 0.166667 134 0C142.8 21.6 130.333 48 123 58.5Z" fill="#F2C9E2"/>
</svg>
