<svg width="152" height="124" viewBox="0 0 152 124" fill="none" xmlns="http://www.w3.org/2000/svg">
<path d="M0.881836 53.7682C0.881836 52.1113 2.22498 50.7682 3.88184 50.7682H142.366C147.336 50.7682 151.366 54.7976 151.366 59.7682V93.3151C151.366 98.2856 147.336 102.315 142.366 102.315H3.88183C2.22497 102.315 0.881836 100.972 0.881836 99.3151V53.7682Z" fill="#00DDA5"/>
<rect x="7.5332" y="57.4194" width="143.832" height="37.4131" fill="#FDFDFD"/>
<rect x="7.5332" y="80.6986" width="143.832" height="14.1338" fill="#E2E2E2"/>
<path d="M128.918 80.6986H119.772V123.1L124.345 114.37L128.918 123.1V80.6986Z" fill="#CC6666"/>
<path d="M0.881836 3.05274C0.881836 1.39588 2.22498 0.0527344 3.88184 0.0527344H142.366C147.336 0.0527344 151.366 4.08217 151.366 9.05274V42.5996C151.366 47.5702 147.336 51.5996 142.366 51.5996H3.88183C2.22497 51.5996 0.881836 50.2565 0.881836 48.5996V3.05274Z" fill="#63C3E1"/>
<rect x="7.5332" y="6.70386" width="143.832" height="37.4131" fill="#FDFDFD"/>
<rect x="7.5332" y="29.9832" width="143.832" height="14.1338" fill="#E2E2E2"/>
</svg>
