<svg width="24" height="24" viewBox="0 0 24 24" fill="none" xmlns="http://www.w3.org/2000/svg">
<path d="M19.9317 10.2019C18.9913 9.45061 17.8 9.00058 16.5029 9.00058H4.00033V6.00023H16.5029C18.4356 6.00023 20.0022 7.56685 20.0022 9.49957C20.0022 9.74032 19.978 9.97515 19.9317 10.2019ZM16.5029 17.9998H5.50051C4.67201 17.9998 4.00033 17.3281 4.00033 16.4996C4.00033 15.6711 4.67201 14.9994 5.50051 14.9994H16.5029C17.8 14.9994 18.9913 14.5494 19.9317 13.7981C19.978 14.0251 20.0022 14.2599 20.0022 14.5004C20.0022 16.4331 18.4356 17.9998 16.5029 17.9998ZM22.0025 9.54637C22.028 6.49572 19.4728 3.99999 16.4222 3.99999H2.62094C2.27797 3.99999 2.0001 4.27786 2.0001 4.62083V10.38C2.0001 10.7229 2.27797 11.0008 2.62094 11.0008H16.5029C17.4559 11.0008 18.3199 11.382 18.951 12.0001C18.3199 12.618 17.4559 12.9992 16.5029 12.9992H5.56964C3.6068 12.9992 1.96298 14.6056 2.00063 16.5679C2.03695 18.4697 3.59012 20 5.50051 20H16.4222C19.4723 20 22.0275 17.5045 22.0025 14.4544C21.9952 13.5705 21.7776 12.7374 21.3999 12.0001C21.7776 11.2628 21.9949 10.43 22.0025 9.54637Z" fill="#00DDA5"/>
</svg>
