<svg width="202" height="852" viewBox="0 0 202 852" fill="none" xmlns="http://www.w3.org/2000/svg">
<path d="M0 851.156V842.698L42.0841 831.165V0H102.543V851.156H0Z" fill="#303030"/>
<path d="M201.529 851.156V842.698L159.445 831.165V0H98.9864V851.156H201.529Z" fill="#303030"/>
<path d="M112.684 385.843C110.106 385.843 108.015 383.742 108.015 381.149L108.015 353.264C108.015 345.368 101.588 338.756 93.7366 338.906C86.1276 339.053 80.0053 345.301 80.0053 352.985L80.0041 392.317C80.0041 393.925 81.3024 395.23 82.902 395.23L86.4441 395.23C88.0437 395.23 89.3407 393.925 89.3407 392.317L89.3407 353.142C89.3407 350.556 91.3522 348.339 93.9224 348.293C96.5416 348.243 98.6786 350.363 98.6786 352.985L98.6786 381.149C98.6786 388.926 104.949 395.23 112.684 395.23L126.689 395.23L126.689 341.818C126.689 340.209 125.392 338.904 123.791 338.904L120.25 338.904C118.65 338.904 117.352 340.209 117.352 341.818L117.352 385.843L112.684 385.843Z" fill="#00DDA5"/>
<path d="M126.688 202.795C126.688 195.109 120.565 188.862 112.957 188.716C105.105 188.566 98.6784 195.177 98.6784 203.072L98.6784 230.802C98.6784 233.386 96.6669 235.604 94.0967 235.651C91.4788 235.699 89.3418 233.579 89.3418 230.957L89.3417 191.627C89.3417 190.018 88.0435 188.713 86.4438 188.713L82.903 188.713C81.3021 188.713 80.0051 190.018 80.0051 191.627L80.0051 230.68C80.0051 238.575 86.4313 245.188 94.2825 245.036C101.891 244.89 108.015 238.643 108.015 230.957L108.015 202.95C108.015 200.366 110.025 198.149 112.595 198.101C115.215 198.053 117.352 200.173 117.352 202.795L117.352 242.125C117.352 243.734 118.65 245.039 120.25 245.039L123.79 245.039C125.391 245.039 126.688 243.734 126.688 242.126L126.688 202.795Z" fill="#FAFAFA"/>
<path d="M80.0051 125.914L80.0051 164.965C80.0051 172.727 86.1324 179.238 93.8506 179.325C97.5006 179.366 100.833 178.002 103.347 175.74C105.824 177.971 109.096 179.325 112.683 179.325C120.418 179.325 126.688 173.022 126.688 165.244L126.688 125.914C126.688 124.304 125.391 123 123.792 123L120.251 123C118.65 123 117.352 124.304 117.352 125.914L117.352 165.089C117.352 167.673 115.341 169.891 112.771 169.938C110.152 169.986 108.015 167.866 108.015 165.244L108.015 125.914C108.015 124.304 106.718 123 105.117 123L101.576 123C99.9767 123 98.6784 124.304 98.6784 125.914L98.6784 165.089C98.6784 167.673 96.6682 169.891 94.098 169.938C91.4788 169.986 89.3418 167.866 89.3418 165.244L89.3417 125.914C89.3417 124.304 88.0435 123 86.4438 123L82.903 123C81.3021 123 80.0051 124.304 80.0051 125.914Z" fill="#FAFAFA"/>
<path d="M117.352 418.699L117.352 451.555L108.014 451.555L108.014 418.699C108.014 416.106 110.105 414.005 112.684 414.005C115.261 414.005 117.352 416.106 117.352 418.699ZM89.3407 451.555L89.3407 418.699C89.3407 416.106 91.4313 414.005 94.0103 414.005C96.5881 414.005 98.6786 416.106 98.6786 418.699L98.6786 451.555L89.3407 451.555ZM93.8496 404.619C86.1314 404.706 80.0053 411.217 80.0053 418.979L80.0053 458.029C80.0053 459.638 81.3024 460.942 82.902 460.942L123.791 460.942C125.392 460.942 126.689 459.638 126.689 458.029L126.689 418.699C126.689 410.922 120.418 404.617 112.684 404.617C109.096 404.617 105.824 405.973 103.347 408.203C100.832 405.94 97.4996 404.577 93.8496 404.619Z" fill="#00DDA5"/>
<path d="M86.4545 254.427L82.9024 254.427C81.3015 254.427 80.0045 255.731 80.0045 257.341L80.0045 260.901C80.0045 262.509 81.3028 263.815 82.9036 263.813L86.4557 263.813C88.0554 263.812 89.3524 262.508 89.3524 260.9L89.3524 257.341C89.3524 255.731 88.0554 254.427 86.4545 254.427Z" fill="#00DDA5"/>
<path d="M95.0406 263.811L123.791 263.803C125.391 263.803 126.688 262.499 126.688 260.89L126.688 257.341C126.688 255.731 125.391 254.427 123.79 254.427L99.7516 254.427C99.0685 254.427 98.4118 254.7 97.9284 255.187L93.3744 259.767C91.8902 261.261 92.9412 263.811 95.0406 263.811Z" fill="#FAFAFA"/>
<path d="M113.714 329.516L123.79 329.516C125.391 329.516 126.688 328.212 126.688 326.603L126.688 323.043C126.688 321.433 125.391 320.129 123.79 320.129L118.429 320.129C117.745 320.129 117.088 320.402 116.605 320.889L112.048 325.473C110.564 326.965 111.615 329.516 113.714 329.516Z" fill="#00DDA5"/>
<path d="M98.6778 320.129L89.3411 320.129L89.3411 287.277C89.3411 284.686 91.4317 282.584 94.0094 282.584C96.5884 282.584 98.6778 284.686 98.6778 287.277L98.6778 320.129ZM108.014 288.207L108.014 287.277C108.176 279.507 101.749 273.196 94.0094 273.196C86.2749 273.196 80.0107 279.501 80.0045 287.277L80.0045 326.604C80.0045 328.212 81.3028 329.516 82.9024 329.516L108.024 329.516L108.024 320.129L108.014 320.129L108.014 300.239L125.99 285.783C126.432 285.428 126.689 284.89 126.69 284.321L126.702 278.236C126.705 276.206 124.371 275.075 122.794 276.341L108.014 288.207Z" fill="#FAFAFA"/>
<path d="M94.9492 489.343C91.4423 493.757 89.3416 499.348 89.3416 505.436L89.3417 564.113L75.3367 564.113L75.3367 505.436C75.3367 496.365 82.6493 489.012 91.6708 489.012C92.7946 489.012 93.8907 489.126 94.9492 489.343ZM131.348 505.436L131.348 557.072C131.348 560.96 128.213 564.113 124.345 564.113C120.478 564.113 117.343 560.96 117.343 557.072L117.343 505.436C117.343 499.348 115.242 493.757 111.735 489.343C112.795 489.126 113.891 489.012 115.014 489.012C124.035 489.012 131.348 496.365 131.348 505.436ZM91.8893 479.625C77.6495 479.505 66 491.497 66 505.814L66 570.586C66 572.196 67.2971 573.5 68.898 573.5L95.7804 573.5C97.3813 573.5 98.6783 572.196 98.6783 570.586L98.6783 505.436C98.6783 500.963 100.457 496.908 103.343 493.946C106.227 496.908 108.006 500.963 108.006 505.436L108.006 556.747C108.006 565.959 115.505 573.674 124.664 573.498C133.541 573.327 140.684 566.038 140.684 557.072L140.684 505.814C140.684 491.499 129.036 479.507 114.799 479.625C110.673 479.659 106.784 480.68 103.343 482.453C99.9013 480.68 96.0139 479.66 91.8893 479.625Z" fill="#00DDA5"/>
</svg>
