<svg width="158" height="154" viewBox="0 0 158 154" fill="none" xmlns="http://www.w3.org/2000/svg">
<path d="M15.3518 56.6538L0.787109 153.988H157.091L142.171 56.6538H15.3518Z" fill="#DA5454"/>
<circle cx="78.9387" cy="69.0871" r="65.008" fill="#A44141"/>
<circle cx="79.2594" cy="69.4075" r="55.0807" fill="white"/>
<circle cx="78.9385" cy="21.1303" r="1.42094" fill="#292929"/>
<circle cx="78.9385" cy="117.754" r="1.42094" fill="#292929"/>
<circle cx="30.627" cy="69.4423" r="1.42094" transform="rotate(-90 30.627 69.4423)" fill="#292929"/>
<circle cx="127.251" cy="69.4423" r="1.42094" transform="rotate(-90 127.251 69.4423)" fill="#292929"/>
<circle cx="78.9385" cy="21.1303" r="1.42094" fill="#292929"/>
<circle cx="78.9385" cy="117.754" r="1.42094" fill="#292929"/>
<circle cx="30.627" cy="69.4423" r="1.42094" transform="rotate(-90 30.627 69.4423)" fill="#292929"/>
<circle cx="127.251" cy="69.4423" r="1.42094" transform="rotate(-90 127.251 69.4423)" fill="#292929"/>
<circle cx="37.8653" cy="44.0076" r="1.42094" transform="rotate(-58.2332 37.8653 44.0076)" fill="#292929"/>
<circle cx="120.015" cy="94.8767" r="1.42094" transform="rotate(-58.2332 120.015 94.8767)" fill="#292929"/>
<circle cx="53.5058" cy="110.517" r="1.42094" transform="rotate(-148.233 53.5058 110.517)" fill="#292929"/>
<circle cx="104.375" cy="28.3675" r="1.42094" transform="rotate(-148.233 104.375 28.3675)" fill="#292929"/>
<circle cx="54.4751" cy="27.7825" r="1.42094" transform="rotate(-30.4234 54.4751 27.7825)" fill="#292929"/>
<circle cx="103.404" cy="111.102" r="1.42094" transform="rotate(-30.4234 103.404 111.102)" fill="#292929"/>
<circle cx="37.2792" cy="93.9069" r="1.42094" transform="rotate(-120.423 37.2792 93.9069)" fill="#292929"/>
<circle cx="120.599" cy="44.9779" r="1.42094" transform="rotate(-120.423 120.599 44.9779)" fill="#292929"/>
<rect x="77.5176" y="30.3663" width="2.84188" height="41.2073" fill="#444444"/>
<rect x="34.2471" y="72.9736" width="1.00552" height="48.6583" transform="rotate(-93.8163 34.2471 72.9736)" fill="#B83434"/>
<rect x="97.9922" y="91.3322" width="2.14988" height="29.8561" transform="rotate(141.332 97.9922 91.3322)" fill="#444444"/>
<circle cx="78.9392" cy="69.4422" r="6.39423" fill="#D9D9D9"/>
</svg>
