<svg width="679" height="718" viewBox="0 0 679 718" fill="none" xmlns="http://www.w3.org/2000/svg">
<ellipse cx="339.032" cy="358.569" rx="253.567" ry="358.569" fill="#FBD6CB"/>
<path d="M75.9683 413.862C75.5215 433.522 102.591 497.639 116.182 527.241L101.661 265.296C65.9248 242.508 52.5152 237.184 50.2775 237.37C20.341 228.434 5.78228 258.221 2.24501 274.232C-12.053 338.573 45.4364 394.127 75.9683 413.862Z" fill="#FBD6CB"/>
<path d="M602.082 413.862C602.529 433.522 575.46 497.639 561.869 527.241L576.39 265.296C612.126 242.508 625.536 237.184 627.773 237.37C657.71 228.434 672.268 258.221 675.806 274.232C690.104 338.573 632.614 394.127 602.082 413.862Z" fill="#FBD6CB"/>
</svg>
